# xmcd CD database file
#
# Track frame offsets:
#	183
#	12750
#	24850
#	38748
#	52573
#	67743
#	82505
#	96558
#	107575
#	121475
#	133373
#	143915
#	156430
#	167073
#	177028
#	189528
#	202603
#	215763
#
# Disc length: 3049 seconds
#
# Revision: 1
# Processed by: cddbd v1.5.1PL0 Copyright (c) Steve Scherf et al.
# Submitted via: CDex 1.51
#
DISCID=e30be712
DTITLE=Elmore James - King Of The Slide Guitar - Disc 1
DYEAR=1982
DGENRE=Blues
TTITLE0=I Believe My Time Ain't Long (Dust My Broom)
TTITLE1=Country Boogie
TTITLE2=I See My Baby
TTITLE3=She Just Won't Do Right
TTITLE4=My Best Friend
TTITLE5=Whose Muddy Shoes
TTITLE6=The Twelve Year Old Boy
TTITLE7=Coming Home
TTITLE8=It Hurts Me Too
TTITLE9=knocking At Your Door
TTITLE10=Elmore's Contribution To Jazz
TTITLE11=Cry For Me Baby
TTITLE12=Take Me Where You Go
TTITLE13=Bobby's Back
TTITLE14=The Sky Is Crying
TTITLE15=Baby Please Set A Date
TTITLE16=Held My Baby Last Night
TTITLE17=Dust My Broom
EXTD=YEAR: 1982
EXTT0=
EXTT1=
EXTT2=
EXTT3=
EXTT4=
EXTT5=
EXTT6=
EXTT7=
EXTT8=
EXTT9=
EXTT10=
EXTT11=
EXTT12=
EXTT13=
EXTT14=
EXTT15=
EXTT16=
EXTT17=
PLAYORDER=
